<svg width="211" height="46" viewBox="0 0 211 46" fill="none" xmlns="http://www.w3.org/2000/svg">
<path d="M201.388 9.30539H204.849V10.0519H203.563V13.8928H202.684V10.0519H201.388V9.30539ZM210.746 9.30539V13.9064H209.918L209.894 10.5506L208.412 13.9064H207.77L206.277 10.4319V13.9064H205.46V9.30539H206.613L208.079 12.8715L209.654 9.30539H210.746Z" fill="#111A41"/>
<path d="M16.8499 19.4473L7.30523 28.9851C5.45599 30.8365 4.41727 33.3462 4.41727 35.963C4.41727 38.5797 5.45599 41.0894 7.30523 42.9408C9.1566 44.79 11.6663 45.8288 14.2831 45.8288C16.8998 45.8288 19.4095 44.79 21.2609 42.9408L23.8226 40.3756L16.8465 33.3995C15.9304 32.4833 15.2037 31.3956 14.708 30.1985C14.2124 29.0014 13.9574 27.7184 13.9577 26.4227C13.958 25.127 14.2136 23.8441 14.7099 22.6472C15.2061 21.4504 15.9333 20.363 16.8499 19.4473Z" fill="#F7B327"/>
<path d="M30.8021 19.4473C31.7185 20.3632 32.4454 21.4508 32.9414 22.6478C33.4374 23.8447 33.6926 25.1277 33.6926 26.4234C33.6926 27.7191 33.4374 29.002 32.9414 30.199C32.4454 31.396 31.7185 32.4835 30.8021 33.3995L23.826 40.3756L26.3912 42.9408C28.242 44.7898 30.7511 45.8285 33.3673 45.8285C35.9835 45.8285 38.4926 44.7898 40.3434 42.9408C41.2599 42.0245 41.9869 40.9367 42.4829 39.7394C42.9789 38.5422 43.2342 37.2589 43.2342 35.963C43.2342 34.667 42.9789 33.3838 42.4829 32.1865C41.9869 30.9892 41.2599 29.9014 40.3434 28.9851L30.8021 19.4473Z" fill="#F7B327"/>
<path d="M30.8022 19.4472C29.8862 18.5309 28.7987 17.8039 27.6017 17.308C26.4047 16.812 25.1217 16.5568 23.8261 16.5568C22.5304 16.5568 21.2474 16.812 20.0504 17.308C18.8534 17.8039 17.7659 18.5309 16.8499 19.4472C15.9336 20.3632 15.2066 21.4508 14.7107 22.6477C14.2147 23.8447 13.9594 25.1277 13.9594 26.4234C13.9594 27.719 14.2147 29.002 14.7107 30.199C15.2066 31.396 15.9336 32.4835 16.8499 33.3995L23.8261 40.3756L30.8022 33.3995C31.7185 32.4835 32.4455 31.396 32.9414 30.199C33.4374 29.002 33.6927 27.719 33.6927 26.4234C33.6927 25.1277 33.4374 23.8447 32.9414 22.6477C32.4455 21.4508 31.7185 20.3632 30.8022 19.4472ZM26.8086 29.3923C26.2187 29.9821 25.4672 30.3837 24.6491 30.5464C23.831 30.7091 22.983 30.6255 22.2124 30.3063C21.4417 29.987 20.7831 29.4464 20.3197 28.7529C19.8563 28.0593 19.6089 27.2439 19.6089 26.4098C19.6089 25.5757 19.8563 24.7603 20.3197 24.0667C20.7831 23.3731 21.4417 22.8326 22.2124 22.5133C22.983 22.1941 23.831 22.1105 24.6491 22.2732C25.4672 22.4359 26.2187 22.8375 26.8086 23.4273C27.2007 23.8187 27.5117 24.2836 27.724 24.7954C27.9362 25.3072 28.0455 25.8558 28.0455 26.4098C28.0455 26.9638 27.9362 27.5124 27.724 28.0242C27.5117 28.536 27.2007 29.0009 26.8086 29.3923Z" fill="#EF7E06"/>
<path d="M5.473 22.3856C8.49566 22.3856 10.946 19.9353 10.946 16.9126C10.946 13.89 8.49566 11.4396 5.473 11.4396C2.45035 11.4396 0 13.89 0 16.9126C0 19.9353 2.45035 22.3856 5.473 22.3856Z" fill="#F7B327"/>
<path d="M16.4495 11.4057C19.4722 11.4057 21.9225 8.95534 21.9225 5.93269C21.9225 2.91003 19.4722 0.459686 16.4495 0.459686C13.4268 0.459686 10.9765 2.91003 10.9765 5.93269C10.9765 8.95534 13.4268 11.4057 16.4495 11.4057Z" fill="#F7B327"/>
<path d="M31.6334 11.1173C34.6561 11.1173 37.1064 8.66692 37.1064 5.64427C37.1064 2.62161 34.6561 0.171265 31.6334 0.171265C28.6108 0.171265 26.1604 2.62161 26.1604 5.64427C26.1604 8.66692 28.6108 11.1173 31.6334 11.1173Z" fill="#F7B327"/>
<path d="M42.6134 22.0938C45.636 22.0938 48.0864 19.6435 48.0864 16.6208C48.0864 13.5982 45.636 11.1478 42.6134 11.1478C39.5907 11.1478 37.1404 13.5982 37.1404 16.6208C37.1404 19.6435 39.5907 22.0938 42.6134 22.0938Z" fill="#F7B327"/>
<path d="M90.9644 16.726L83.7033 37.4236H78.1794L74.2298 26.101L70.3177 37.4135H64.7938L57.5733 16.7158H64.1762L68.1834 29.1446H68.2445L72.0345 16.838H76.4828L80.2559 29.1548H80.3374L84.3276 16.726H90.9644Z" fill="#111A41"/>
<path d="M92.2809 27.0816C92.2726 25.6127 92.5575 24.1569 93.119 22.7996C93.6664 21.485 94.4743 20.295 95.4942 19.3013C96.5379 18.2805 97.7713 17.4736 99.1247 16.9262C100.605 16.3316 102.188 16.0364 103.783 16.0576C105.391 16.0368 106.986 16.3319 108.479 16.9262C109.841 17.4695 111.082 18.2767 112.13 19.3013C113.147 20.2974 113.955 21.4868 114.505 22.7996C115.075 24.1548 115.364 25.6115 115.354 27.0816C115.359 27.4137 115.342 27.7459 115.303 28.0758C115.269 28.3167 115.235 28.5576 115.194 28.7951H98.4054C98.5683 29.4231 98.8417 30.0171 99.213 30.5493C99.5678 31.0563 99.9993 31.5051 100.492 31.8794C100.97 32.2401 101.501 32.5251 102.067 32.7242C102.627 32.9242 103.218 33.0263 103.814 33.0262C104.698 33.0481 105.572 32.8337 106.345 32.4053C107.021 32.0364 107.586 31.4927 107.981 30.8309H114.645C114.314 31.7828 113.844 32.6804 113.25 33.4945C112.603 34.384 111.823 35.168 110.936 35.8187C109.965 36.5227 108.891 37.0743 107.753 37.4542C106.47 37.8778 105.125 38.0865 103.773 38.0717C102.182 38.091 100.602 37.7958 99.1247 37.2031C97.7702 36.6577 96.5365 35.8506 95.4942 34.8279C94.4701 33.8127 93.6585 32.6036 93.1068 31.2712C92.5552 29.9389 92.2744 28.51 92.2809 27.068V27.0816ZM103.817 20.9571C102.649 20.9197 101.5 21.2627 100.543 21.9343C99.6578 22.5811 98.9847 23.4763 98.609 24.5063H108.788C108.43 23.4964 107.794 22.6083 106.953 21.9445C106.051 21.2647 104.942 20.916 103.814 20.9571H103.817Z" fill="#111A41"/>
<path d="M136.129 22.0124H128.01V37.4135H121.807V22.0124H118.017V16.726H121.807V15.949C121.809 14.9893 121.933 14.0337 122.177 13.1056C122.415 12.1702 122.839 11.2922 123.422 10.5235C124.044 9.72074 124.848 9.07753 125.767 8.64712C126.926 8.13012 128.187 7.88412 129.455 7.92779H133.595V12.9563L130.962 12.9359C130.491 12.9224 130.023 13.008 129.588 13.187C129.236 13.3391 128.924 13.5715 128.678 13.8656C128.441 14.1556 128.268 14.4919 128.169 14.853C128.061 15.2522 128.007 15.6643 128.01 16.0779V16.7362H142.349V37.4338H136.129V22.0124ZM135.59 11.1546C135.59 10.7228 135.678 10.2955 135.85 9.89918C136.021 9.50289 136.272 9.14604 136.587 8.85071C136.923 8.54142 137.316 8.30054 137.744 8.14156C138.23 7.96311 138.744 7.87569 139.261 7.88368C139.782 7.87636 140.299 7.96374 140.788 8.14156C141.22 8.29888 141.617 8.53987 141.955 8.85071C142.271 9.14608 142.525 9.50132 142.702 9.89576C142.881 10.2913 142.973 10.7205 142.973 11.1546C142.973 11.5945 142.875 12.0289 142.688 12.427C142.511 12.8132 142.257 13.1594 141.942 13.4449C141.601 13.7502 141.205 13.9875 140.774 14.1439C140.285 14.3217 139.768 14.4091 139.248 14.4018C138.737 14.4086 138.23 14.3212 137.751 14.1439C137.323 13.9849 136.93 13.744 136.594 13.4347C136.279 13.1412 136.026 12.7883 135.848 12.3964C135.674 12.0082 135.586 11.5869 135.59 11.1614V11.1546Z" fill="#111A41"/>
<path d="M169.982 37.4135H163.779V26.4607C163.797 25.6463 163.696 24.8337 163.481 24.0482C163.32 23.4706 163.034 22.9355 162.643 22.4806C162.291 22.0946 161.847 21.803 161.353 21.6323C160.823 21.4566 160.267 21.3695 159.708 21.3745C159.006 21.3665 158.311 21.5124 157.672 21.802C157.072 22.0796 156.538 22.4809 156.104 22.9794C155.66 23.5038 155.324 24.1117 155.117 24.7675C154.886 25.496 154.771 26.2564 154.778 27.0205V37.4135H148.599V16.7158H153.563L153.943 18.2936C154.882 17.6271 155.91 17.096 156.997 16.7158C157.573 16.5143 158.162 16.3544 158.761 16.2374C159.369 16.1178 159.987 16.0576 160.607 16.0576C162.055 16.0235 163.497 16.2641 164.855 16.7667C165.979 17.1963 166.98 17.8954 167.77 18.8025C168.556 19.7405 169.127 20.8397 169.442 22.0226C169.822 23.4291 170.004 24.8818 169.982 26.3385V37.4135Z" fill="#111A41"/>
<path d="M174.132 27.0816C174.121 25.6201 174.378 24.169 174.888 22.7996C175.373 21.4979 176.116 20.308 177.073 19.3013C178.051 18.2838 179.225 17.4757 180.524 16.9262C181.975 16.3219 183.534 16.0227 185.105 16.0474C186.239 16.0292 187.368 16.2048 188.444 16.5665C189.371 16.8865 190.249 17.3366 191.049 17.9034V9.30539H197.191V37.4135H191.945L191.647 35.717C190.812 36.4217 189.873 36.9938 188.864 37.4135C187.711 37.8922 186.472 38.13 185.224 38.1125C183.652 38.1341 182.091 37.8387 180.636 37.2438C179.318 36.7016 178.126 35.893 177.135 34.8687C176.172 33.8576 175.42 32.665 174.922 31.3603C174.394 29.9959 174.126 28.5447 174.132 27.0816ZM180.317 27.0613C180.306 27.8653 180.451 28.6639 180.745 29.4126C181.012 30.0901 181.413 30.7073 181.922 31.2279C182.42 31.7339 183.017 32.1313 183.676 32.3951C185.054 32.9426 186.588 32.9426 187.965 32.3951C188.623 32.1325 189.221 31.7388 189.723 31.2381C190.234 30.719 190.635 30.1014 190.9 29.4228C191.195 28.6661 191.34 27.8596 191.328 27.0477C191.338 26.2525 191.193 25.4628 190.9 24.7234C190.631 24.0527 190.231 23.4425 189.723 22.9285C189.221 22.4278 188.623 22.0341 187.965 21.7715C186.574 21.2242 185.027 21.2242 183.636 21.7715C182.981 22.0335 182.387 22.4273 181.892 22.9285C181.389 23.4426 180.995 24.0532 180.735 24.7234C180.447 25.4687 180.305 26.2624 180.317 27.0613Z" fill="#111A41"/>
</svg>
