<svg width="62" height="96" viewBox="0 0 62 96" fill="none" xmlns="http://www.w3.org/2000/svg">
<path d="M5.76 58V25.488L5.12 20.304H33.472C36.2027 20.304 38.336 20.6667 39.872 21.392C41.4507 22.1173 42.6027 23.0773 43.328 24.272C44.096 25.424 44.5867 26.6613 44.8 27.984C45.0133 29.3067 45.12 30.5653 45.12 31.76V35.536C45.12 36.5173 44.9707 37.6267 44.672 38.864C44.3733 40.0587 43.8187 41.232 43.008 42.384C42.1973 43.4933 41.024 44.432 39.488 45.2C37.952 45.9253 35.9467 46.288 33.472 46.288H26.944C24.256 46.288 21.7387 46.224 19.392 46.096C17.088 45.968 15.36 45.8613 14.208 45.776V58H5.76ZM14.208 40.144H31.616C33.536 40.144 34.8587 39.6747 35.584 38.736C36.3093 37.7973 36.672 36.6667 36.672 35.344V31.312C36.672 29.9467 36.3093 28.7947 35.584 27.856C34.8587 26.9173 33.5573 26.448 31.68 26.448H14.208V40.144Z" fill="#FF0000"/>
<path d="M56.24 38L56.24 70.512L56.88 75.696H28.528C25.7973 75.696 23.664 75.3333 22.128 74.608C20.5493 73.8827 19.3973 72.9227 18.672 71.728C17.904 70.576 17.4133 69.3387 17.2 68.016C16.9867 66.6933 16.88 65.4347 16.88 64.24V60.464C16.88 59.4827 17.0293 58.3733 17.328 57.136C17.6267 55.9413 18.1813 54.768 18.992 53.616C19.8027 52.5067 20.976 51.568 22.512 50.8C24.048 50.0747 26.0533 49.712 28.528 49.712L35.056 49.712C37.744 49.712 40.2613 49.776 42.608 49.904C44.912 50.032 46.64 50.1387 47.792 50.224V38H56.24ZM47.792 55.856L30.384 55.856C28.464 55.856 27.1413 56.3253 26.416 57.264C25.6907 58.2027 25.328 59.3333 25.328 60.656V64.688C25.328 66.0533 25.6907 67.2053 26.416 68.144C27.1413 69.0827 28.4427 69.552 30.32 69.552H47.792L47.792 55.856Z" fill="#001AFF"/>
</svg>
