<svg width="24" height="25" viewBox="0 0 24 25" fill="none" xmlns="http://www.w3.org/2000/svg">
<path d="M17 2.5H7C4.23858 2.5 2 4.73858 2 7.5V17.5C2 20.2614 4.23858 22.5 7 22.5H17C19.7614 22.5 22 20.2614 22 17.5V7.5C22 4.73858 19.7614 2.5 17 2.5Z" stroke="#EEEEEE" stroke-opacity="0.75" stroke-width="2" stroke-linecap="round" stroke-linejoin="round"/>
<path d="M16 11.87C16.1234 12.7022 15.9813 13.5522 15.5938 14.299C15.2063 15.0458 14.5932 15.6514 13.8416 16.0297C13.0901 16.4079 12.2385 16.5396 11.4078 16.4059C10.5771 16.2723 9.80977 15.8801 9.21485 15.2852C8.61993 14.6902 8.22774 13.9229 8.09408 13.0922C7.96042 12.2616 8.09208 11.4099 8.47034 10.6584C8.8486 9.90685 9.4542 9.29374 10.201 8.90624C10.9478 8.51874 11.7978 8.37659 12.63 8.5C13.4789 8.62588 14.2649 9.02146 14.8717 9.62831C15.4785 10.2351 15.8741 11.0211 16 11.87Z" stroke="#EEEEEE" stroke-opacity="0.75" stroke-width="2" stroke-linecap="round" stroke-linejoin="round"/>
<path d="M17.5 7H17.51" stroke="#EEEEEE" stroke-opacity="0.75" stroke-width="2" stroke-linecap="round" stroke-linejoin="round"/>
</svg>
