<svg width="188" height="54" viewBox="0 0 188 54" fill="none" xmlns="http://www.w3.org/2000/svg">
<path d="M22.068 23.08C22.068 24.616 21.708 26.02 20.988 27.292C20.292 28.54 19.224 29.548 17.784 30.316C16.368 31.06 14.628 31.432 12.564 31.432L9.072 31.432L9.072 40H2.016L2.016 14.62L12.564 14.62C14.604 14.62 16.332 14.98 17.748 15.7C19.188 16.42 20.268 17.416 20.988 18.688C21.708 19.96 22.068 21.424 22.068 23.08ZM11.88 25.816C13.872 25.816 14.868 24.904 14.868 23.08C14.868 21.232 13.872 20.308 11.88 20.308L9.072 20.308L9.072 25.816L11.88 25.816ZM31.9587 23.368C32.7507 22.216 33.7107 21.304 34.8387 20.632C35.9667 19.96 37.1787 19.624 38.4747 19.624V27.148H36.4947C34.9587 27.148 33.8187 27.448 33.0747 28.048C32.3307 28.648 31.9587 29.692 31.9587 31.18V40H24.9027L24.9027 19.804L31.9587 19.804V23.368ZM50.4003 40.252C48.3843 40.252 46.5723 39.832 44.9643 38.992C43.3803 38.152 42.1323 36.952 41.2203 35.392C40.3083 33.832 39.8523 31.996 39.8523 29.884C39.8523 27.796 40.3083 25.972 41.2203 24.412C42.1563 22.852 43.4163 21.652 45.0003 20.812C46.6083 19.972 48.4203 19.552 50.4363 19.552C52.4523 19.552 54.2523 19.972 55.8363 20.812C57.4443 21.652 58.7043 22.852 59.6163 24.412C60.5523 25.972 61.0203 27.796 61.0203 29.884C61.0203 31.972 60.5523 33.808 59.6163 35.392C58.7043 36.952 57.4443 38.152 55.8363 38.992C54.2283 39.832 52.4163 40.252 50.4003 40.252ZM50.4003 34.132C51.3843 34.132 52.2003 33.772 52.8483 33.052C53.5203 32.308 53.8563 31.252 53.8563 29.884C53.8563 28.516 53.5203 27.472 52.8483 26.752C52.2003 26.032 51.3963 25.672 50.4363 25.672C49.4763 25.672 48.6723 26.032 48.0243 26.752C47.3763 27.472 47.0523 28.516 47.0523 29.884C47.0523 31.276 47.3643 32.332 47.9883 33.052C48.6123 33.772 49.4163 34.132 50.4003 34.132Z" fill="white"/>
<path d="M73.935 14.62C76.599 14.62 78.927 15.16 80.919 16.24C82.935 17.296 84.483 18.784 85.563 20.704C86.643 22.624 87.183 24.82 87.183 27.292C87.183 29.74 86.631 31.924 85.527 33.844C84.447 35.764 82.899 37.276 80.883 38.38C78.891 39.46 76.575 40 73.935 40H63.891L63.891 14.62L73.935 14.62ZM73.395 33.772C75.459 33.772 77.079 33.208 78.255 32.08C79.431 30.952 80.019 29.356 80.019 27.292C80.019 25.204 79.431 23.596 78.255 22.468C77.079 21.316 75.459 20.74 73.395 20.74H70.947V33.772H73.395ZM109.66 29.668C109.66 30.22 109.624 30.772 109.552 31.324L96.1957 31.324C96.2677 32.428 96.5677 33.256 97.0957 33.808C97.6477 34.336 98.3437 34.6 99.1837 34.6C100.36 34.6 101.2 34.072 101.704 33.016H109.228C108.916 34.408 108.304 35.656 107.392 36.76C106.504 37.84 105.376 38.692 104.008 39.316C102.64 39.94 101.128 40.252 99.4717 40.252C97.4797 40.252 95.7037 39.832 94.1437 38.992C92.6077 38.152 91.3957 36.952 90.5077 35.392C89.6437 33.832 89.2117 31.996 89.2117 29.884C89.2117 27.772 89.6437 25.948 90.5077 24.412C91.3717 22.852 92.5717 21.652 94.1077 20.812C95.6677 19.972 97.4557 19.552 99.4717 19.552C101.464 19.552 103.228 19.96 104.764 20.776C106.3 21.592 107.5 22.768 108.364 24.304C109.228 25.816 109.66 27.604 109.66 29.668ZM102.46 27.904C102.46 27.04 102.172 26.368 101.596 25.888C101.02 25.384 100.3 25.132 99.4357 25.132C98.5717 25.132 97.8637 25.372 97.3117 25.852C96.7597 26.308 96.3997 26.992 96.2317 27.904H102.46ZM122.231 33.34L126.011 19.804L133.535 19.804L126.587 40H117.803L110.855 19.804H118.379L122.231 33.34ZM139.346 40.288C138.098 40.288 137.09 39.952 136.322 39.28C135.578 38.584 135.206 37.708 135.206 36.652C135.206 35.596 135.578 34.72 136.322 34.024C137.09 33.328 138.098 32.98 139.346 32.98C140.57 32.98 141.554 33.328 142.298 34.024C143.066 34.72 143.45 35.596 143.45 36.652C143.45 37.684 143.066 38.548 142.298 39.244C141.554 39.94 140.57 40.288 139.346 40.288ZM167.418 19.804V40H160.326V37.12C159.726 38.032 158.898 38.776 157.842 39.352C156.786 39.904 155.574 40.18 154.206 40.18C151.854 40.18 149.994 39.412 148.626 37.876C147.282 36.316 146.61 34.204 146.61 31.54V19.804H153.63V30.64C153.63 31.792 153.93 32.704 154.53 33.376C155.154 34.024 155.97 34.348 156.978 34.348C158.01 34.348 158.826 34.024 159.426 33.376C160.026 32.704 160.326 31.792 160.326 30.64V19.804L167.418 19.804ZM178.13 34.132H186.734V40L170.354 40V34.42L178.382 25.672H170.426V19.804L186.446 19.804V25.384L178.13 34.132Z" fill="#00ADB5"/>
<path d="M65.5 47L185.502 46.989" stroke="white" stroke-linecap="round"/>
<path d="M9.312 44.472C9.87733 44.472 10.32 44.6427 10.64 44.984C10.9653 45.3253 11.128 45.792 11.128 46.384V49H9.56V46.592C9.56 46.352 9.49333 46.1653 9.36 46.032C9.22667 45.8987 9.04533 45.832 8.816 45.832C8.58667 45.832 8.40533 45.8987 8.272 46.032C8.13867 46.1653 8.072 46.352 8.072 46.592V49H6.504V46.592C6.504 46.352 6.43733 46.1653 6.304 46.032C6.176 45.8987 5.99733 45.832 5.768 45.832C5.53333 45.832 5.34933 45.8987 5.216 46.032C5.08267 46.1653 5.016 46.352 5.016 46.592V49H3.448V44.512H5.016V45.104C5.15467 44.912 5.33333 44.76 5.552 44.648C5.776 44.5307 6.032 44.472 6.32 44.472C6.65067 44.472 6.944 44.544 7.2 44.688C7.46133 44.832 7.66667 45.0347 7.816 45.296C7.976 45.0507 8.18667 44.8533 8.448 44.704C8.70933 44.5493 8.99733 44.472 9.312 44.472ZM16.5791 44.512V49H15.0031V48.36C14.8697 48.5627 14.6857 48.728 14.4511 48.856C14.2164 48.9787 13.9471 49.04 13.6431 49.04C13.1204 49.04 12.7071 48.8693 12.4031 48.528C12.1044 48.1813 11.9551 47.712 11.9551 47.12V44.512H13.5151V46.92C13.5151 47.176 13.5817 47.3787 13.7151 47.528C13.8537 47.672 14.0351 47.744 14.2591 47.744C14.4884 47.744 14.6697 47.672 14.8031 47.528C14.9364 47.3787 15.0031 47.176 15.0031 46.92V44.512H16.5791ZM19.3834 49.056C18.9781 49.056 18.6154 48.9893 18.2954 48.856C17.9808 48.7173 17.7301 48.5307 17.5434 48.296C17.3621 48.056 17.2608 47.7867 17.2394 47.488H18.7594C18.7808 47.632 18.8474 47.744 18.9594 47.824C19.0714 47.904 19.2101 47.944 19.3754 47.944C19.5034 47.944 19.6048 47.9173 19.6794 47.864C19.7541 47.8107 19.7914 47.7413 19.7914 47.656C19.7914 47.544 19.7301 47.4613 19.6074 47.408C19.4848 47.3547 19.2821 47.296 18.9994 47.232C18.6794 47.168 18.4128 47.096 18.1994 47.016C17.9861 46.936 17.7994 46.8053 17.6394 46.624C17.4848 46.4427 17.4074 46.1973 17.4074 45.888C17.4074 45.6213 17.4794 45.3813 17.6234 45.168C17.7674 44.9493 17.9781 44.776 18.2554 44.648C18.5381 44.52 18.8768 44.456 19.2714 44.456C19.8581 44.456 20.3194 44.6 20.6554 44.888C20.9914 45.176 21.1861 45.5547 21.2394 46.024H19.8234C19.7968 45.88 19.7328 45.7707 19.6314 45.696C19.5354 45.616 19.4048 45.576 19.2394 45.576C19.1114 45.576 19.0128 45.6 18.9434 45.648C18.8794 45.696 18.8474 45.7627 18.8474 45.848C18.8474 45.9547 18.9088 46.0373 19.0314 46.096C19.1541 46.1493 19.3514 46.2053 19.6234 46.264C19.9488 46.3333 20.2181 46.4107 20.4314 46.496C20.6501 46.5813 20.8394 46.72 20.9994 46.912C21.1648 47.0987 21.2474 47.3547 21.2474 47.68C21.2474 47.9413 21.1701 48.176 21.0154 48.384C20.8661 48.592 20.6501 48.7573 20.3674 48.88C20.0901 48.9973 19.7621 49.056 19.3834 49.056ZM24.1063 49.056C23.6583 49.056 23.2556 48.9627 22.8983 48.776C22.5463 48.5893 22.269 48.3227 22.0663 47.976C21.8636 47.6293 21.7623 47.2213 21.7623 46.752C21.7623 46.288 21.8636 45.8827 22.0663 45.536C22.2743 45.1893 22.5543 44.9227 22.9063 44.736C23.2636 44.5493 23.6663 44.456 24.1143 44.456C24.5623 44.456 24.9623 44.5493 25.3143 44.736C25.6716 44.9227 25.9516 45.1893 26.1543 45.536C26.3623 45.8827 26.4663 46.288 26.4663 46.752C26.4663 47.216 26.3623 47.624 26.1543 47.976C25.9516 48.3227 25.6716 48.5893 25.3143 48.776C24.957 48.9627 24.5543 49.056 24.1063 49.056ZM24.1063 47.696C24.325 47.696 24.5063 47.616 24.6503 47.456C24.7996 47.2907 24.8743 47.056 24.8743 46.752C24.8743 46.448 24.7996 46.216 24.6503 46.056C24.5063 45.896 24.3276 45.816 24.1143 45.816C23.901 45.816 23.7223 45.896 23.5783 46.056C23.4343 46.216 23.3623 46.448 23.3623 46.752C23.3623 47.0613 23.4316 47.296 23.5703 47.456C23.709 47.616 23.8876 47.696 24.1063 47.696ZM28.6723 45.136C28.7949 44.9227 28.9683 44.7573 29.1923 44.64C29.4163 44.5173 29.6803 44.456 29.9843 44.456C30.3416 44.456 30.6643 44.5493 30.9523 44.736C31.2456 44.9227 31.4749 45.1893 31.6403 45.536C31.8109 45.8827 31.8963 46.288 31.8963 46.752C31.8963 47.216 31.8109 47.624 31.6403 47.976C31.4749 48.3227 31.2456 48.5893 30.9523 48.776C30.6643 48.9627 30.3416 49.056 29.9843 49.056C29.6803 49.056 29.4163 48.9973 29.1923 48.88C28.9683 48.7573 28.7949 48.5893 28.6723 48.376V49H27.1043V43.08H28.6723V45.136ZM30.3043 46.752C30.3043 46.4587 30.2243 46.232 30.0643 46.072C29.9096 45.9067 29.7176 45.824 29.4883 45.824C29.2589 45.824 29.0643 45.9067 28.9043 46.072C28.7496 46.2373 28.6723 46.464 28.6723 46.752C28.6723 47.0453 28.7496 47.2747 28.9043 47.44C29.0643 47.6053 29.2589 47.688 29.4883 47.688C29.7176 47.688 29.9096 47.6053 30.0643 47.44C30.2243 47.2693 30.3043 47.04 30.3043 46.752ZM36.8298 46.704C36.8298 46.8267 36.8218 46.9493 36.8058 47.072H33.8378C33.8538 47.3173 33.9204 47.5013 34.0378 47.624C34.1604 47.7413 34.3151 47.8 34.5018 47.8C34.7631 47.8 34.9498 47.6827 35.0618 47.448H36.7338C36.6644 47.7573 36.5284 48.0347 36.3258 48.28C36.1284 48.52 35.8778 48.7093 35.5738 48.848C35.2698 48.9867 34.9338 49.056 34.5658 49.056C34.1231 49.056 33.7284 48.9627 33.3818 48.776C33.0404 48.5893 32.7711 48.3227 32.5738 47.976C32.3818 47.6293 32.2858 47.2213 32.2858 46.752C32.2858 46.2827 32.3818 45.8773 32.5738 45.536C32.7658 45.1893 33.0324 44.9227 33.3738 44.736C33.7204 44.5493 34.1178 44.456 34.5658 44.456C35.0084 44.456 35.4004 44.5467 35.7418 44.728C36.0831 44.9093 36.3498 45.1707 36.5418 45.512C36.7338 45.848 36.8298 46.2453 36.8298 46.704ZM35.2298 46.312C35.2298 46.12 35.1658 45.9707 35.0378 45.864C34.9098 45.752 34.7498 45.696 34.5578 45.696C34.3658 45.696 34.2084 45.7493 34.0858 45.856C33.9631 45.9573 33.8831 46.1093 33.8458 46.312H35.2298ZM37.2154 46.752C37.2154 46.288 37.3114 45.8827 37.5034 45.536C37.6954 45.1893 37.9621 44.9227 38.3034 44.736C38.6501 44.5493 39.0448 44.456 39.4874 44.456C40.0581 44.456 40.5381 44.6133 40.9274 44.928C41.3168 45.2373 41.5674 45.672 41.6794 46.232H40.0154C39.9194 45.9387 39.7328 45.792 39.4554 45.792C39.2581 45.792 39.1008 45.8747 38.9834 46.04C38.8714 46.2 38.8154 46.4373 38.8154 46.752C38.8154 47.0667 38.8714 47.3067 38.9834 47.472C39.1008 47.6373 39.2581 47.72 39.4554 47.72C39.7381 47.72 39.9248 47.5733 40.0154 47.28H41.6794C41.5674 47.8347 41.3168 48.2693 40.9274 48.584C40.5381 48.8987 40.0581 49.056 39.4874 49.056C39.0448 49.056 38.6501 48.9627 38.3034 48.776C37.9621 48.5893 37.6954 48.3227 37.5034 47.976C37.3114 47.6293 37.2154 47.2213 37.2154 46.752ZM42.0748 46.752C42.0748 46.288 42.1708 45.8827 42.3628 45.536C42.5548 45.1893 42.8215 44.9227 43.1628 44.736C43.5095 44.5493 43.9041 44.456 44.3468 44.456C44.9175 44.456 45.3975 44.6133 45.7868 44.928C46.1761 45.2373 46.4268 45.672 46.5388 46.232H44.8748C44.7788 45.9387 44.5921 45.792 44.3148 45.792C44.1175 45.792 43.9601 45.8747 43.8428 46.04C43.7308 46.2 43.6748 46.4373 43.6748 46.752C43.6748 47.0667 43.7308 47.3067 43.8428 47.472C43.9601 47.6373 44.1175 47.72 44.3148 47.72C44.5975 47.72 44.7841 47.5733 44.8748 47.28H46.5388C46.4268 47.8347 46.1761 48.2693 45.7868 48.584C45.3975 48.8987 44.9175 49.056 44.3468 49.056C43.9041 49.056 43.5095 48.9627 43.1628 48.776C42.8215 48.5893 42.5548 48.3227 42.3628 47.976C42.1708 47.6293 42.0748 47.2213 42.0748 46.752ZM49.2782 49.056C48.8302 49.056 48.4275 48.9627 48.0702 48.776C47.7182 48.5893 47.4409 48.3227 47.2382 47.976C47.0355 47.6293 46.9342 47.2213 46.9342 46.752C46.9342 46.288 47.0355 45.8827 47.2382 45.536C47.4462 45.1893 47.7262 44.9227 48.0782 44.736C48.4355 44.5493 48.8382 44.456 49.2862 44.456C49.7342 44.456 50.1342 44.5493 50.4862 44.736C50.8435 44.9227 51.1235 45.1893 51.3262 45.536C51.5342 45.8827 51.6382 46.288 51.6382 46.752C51.6382 47.216 51.5342 47.624 51.3262 47.976C51.1235 48.3227 50.8435 48.5893 50.4862 48.776C50.1289 48.9627 49.7262 49.056 49.2782 49.056ZM49.2782 47.696C49.4969 47.696 49.6782 47.616 49.8222 47.456C49.9715 47.2907 50.0462 47.056 50.0462 46.752C50.0462 46.448 49.9715 46.216 49.8222 46.056C49.6782 45.896 49.4995 45.816 49.2862 45.816C49.0729 45.816 48.8942 45.896 48.7502 46.056C48.6062 46.216 48.5342 46.448 48.5342 46.752C48.5342 47.0613 48.6035 47.296 48.7422 47.456C48.8809 47.616 49.0595 47.696 49.2782 47.696ZM52.0201 46.752C52.0201 46.288 52.1028 45.8827 52.2681 45.536C52.4388 45.1893 52.6708 44.9227 52.9641 44.736C53.2575 44.5493 53.5828 44.456 53.9401 44.456C54.2281 44.456 54.4841 44.5173 54.7081 44.64C54.9375 44.7573 55.1161 44.92 55.2441 45.128V43.08H56.8201V49H55.2441V48.376C55.1215 48.584 54.9481 48.7493 54.7241 48.872C54.5001 48.9947 54.2361 49.056 53.9321 49.056C53.5748 49.056 53.2495 48.9627 52.9561 48.776C52.6681 48.5893 52.4388 48.3227 52.2681 47.976C52.1028 47.624 52.0201 47.216 52.0201 46.752ZM55.2521 46.752C55.2521 46.464 55.1721 46.2373 55.0121 46.072C54.8575 45.9067 54.6655 45.824 54.4361 45.824C54.2015 45.824 54.0068 45.9067 53.8521 46.072C53.6975 46.232 53.6201 46.4587 53.6201 46.752C53.6201 47.04 53.6975 47.2693 53.8521 47.44C54.0068 47.6053 54.2015 47.688 54.4361 47.688C54.6655 47.688 54.8575 47.6053 55.0121 47.44C55.1721 47.2747 55.2521 47.0453 55.2521 46.752ZM62.0016 46.704C62.0016 46.8267 61.9936 46.9493 61.9776 47.072H59.0096C59.0256 47.3173 59.0923 47.5013 59.2096 47.624C59.3323 47.7413 59.487 47.8 59.6736 47.8C59.935 47.8 60.1216 47.6827 60.2336 47.448H61.9056C61.8363 47.7573 61.7003 48.0347 61.4976 48.28C61.3003 48.52 61.0496 48.7093 60.7456 48.848C60.4416 48.9867 60.1056 49.056 59.7376 49.056C59.295 49.056 58.9003 48.9627 58.5536 48.776C58.2123 48.5893 57.943 48.3227 57.7456 47.976C57.5536 47.6293 57.4576 47.2213 57.4576 46.752C57.4576 46.2827 57.5536 45.8773 57.7456 45.536C57.9376 45.1893 58.2043 44.9227 58.5456 44.736C58.8923 44.5493 59.2896 44.456 59.7376 44.456C60.1803 44.456 60.5723 44.5467 60.9136 44.728C61.255 44.9093 61.5216 45.1707 61.7136 45.512C61.9056 45.848 62.0016 46.2453 62.0016 46.704ZM60.4016 46.312C60.4016 46.12 60.3376 45.9707 60.2096 45.864C60.0816 45.752 59.9216 45.696 59.7296 45.696C59.5376 45.696 59.3803 45.7493 59.2576 45.856C59.135 45.9573 59.055 46.1093 59.0176 46.312H60.4016Z" fill="#00ADB5"/>
</svg>
