<svg width="26" height="26" viewBox="0 0 26 26" fill="none" xmlns="http://www.w3.org/2000/svg">
<path d="M21.6667 11.9157H23.8333C23.8333 6.35816 19.6376 2.16675 14.0725 2.16675V4.33341C18.473 4.33341 21.6667 7.52166 21.6667 11.9157Z" fill="#00ADB5"/>
<path d="M14.0833 8.6666C16.3615 8.6666 17.3333 9.63835 17.3333 11.9166H19.4999C19.4999 8.42285 17.577 6.49993 14.0833 6.49993V8.6666ZM17.7904 14.5632C17.5823 14.374 17.3087 14.2731 17.0276 14.2818C16.7464 14.2905 16.4796 14.4081 16.2835 14.6098L13.6911 17.2759C13.0671 17.1567 11.8126 16.7656 10.5213 15.4775C9.22994 14.1851 8.83886 12.9274 8.72294 12.3077L11.3869 9.71418C11.5888 9.51824 11.7066 9.25141 11.7153 8.97016C11.724 8.68891 11.6229 8.41531 11.4334 8.20727L7.43052 3.80568C7.24099 3.59699 6.97756 3.4704 6.69619 3.4528C6.41482 3.4352 6.13767 3.52798 5.92361 3.71143L3.57277 5.72752C3.38548 5.91549 3.27369 6.16567 3.25861 6.4306C3.24236 6.70143 2.93252 13.1169 7.90719 18.0938C12.247 22.4325 17.6832 22.7499 19.1804 22.7499C19.3992 22.7499 19.5335 22.7434 19.5693 22.7413C19.8342 22.7264 20.0842 22.6142 20.2713 22.426L22.2863 20.0741C22.4699 19.8602 22.5628 19.5831 22.5454 19.3017C22.528 19.0204 22.4016 18.7569 22.1931 18.5672L17.7904 14.5632Z" fill="#00ADB5"/>
</svg>
